<?xml version="1.0" encoding="UTF-8"?>
<svg id="Calque_2" data-name="Calque 2" xmlns="http://www.w3.org/2000/svg" viewBox="0 0 1127 283.88">
  <defs>
    <style>
      .cls-1 {
        fill: #efb90a;
      }

      .cls-1, .cls-2 {
        stroke-width: 0px;
      }

      .cls-2 {
        fill: #52575d;
      }
    </style>
  </defs>
  <g id="Calque_1-2" data-name="Calque 1">
    <g>
      <g>
        <path class="cls-2" d="M218.5,226.16c2.89-4.44,6.97-7.78,10.63-11.49,28.26-28.63,56.87-56.92,84.74-85.92,15.17-15.79,19.66-35.23,13.28-56.3-6.2-20.47-20.3-33.52-41.24-37.81-21.73-4.46-43.43,3.6-56.98,23.41-6.57,9.62-9.03,20.24-9.36,31.56-.21,7.08.14,14.17-.18,21.24-.26,5.81-2.07,11.15-6.42,15.42-6.06,5.95-14.02,7.08-21.34,2.79-5.88-3.44-10.69-8.26-15.95-12.5-7.44-5.99-15.53-10.16-25.37-10.15-14.13.02-25.22,7.35-30.71,20.38-2.41,5.71-3.7,11.66-3.82,17.85-.09.8-.26,1.6-.26,2.41.02,13.78.06,27.56.1,41.34-2.23,12.02-6.48,19.78-18.58,23.6-.5.16-1,.33-1.49.52-1.21.47-5.21,1.39-11.93-2.65-8.31-5.01-11.56-14.94-11.55-25.02.08-45.96.31-91.93-.15-137.88-.15-14.43,4.56-24.1,15.09-26.04.88-.16,1.78-.22,2.67-.22,1.67,0,2.58,0,3.51.01,1.54.02,3.07.25,4.53.73,8.9,2.96,16.01,11.19,17.92,21.31-.2,14-.16,28.01.21,42.01,1.25.75,1.5-.64,2.01-1.1,8.38-7.57,18.09-11.55,29.47-11.9,13.65-.42,25.6,3.47,35.73,12.7.7.64,1.47,1.42,2.38,1.1,1.09-.39.62-1.61.67-2.46,2.18-37.85,27.61-68.48,62.43-78.77,35.46-10.49,66.67-1.74,92.27,24.93,13.21,13.77,20.35,30.75,22.24,49.8,2.28,23.05-3.14,44.15-16.33,63.18-2.76,3.98-5.94,7.66-9.37,11.08-37.33,37.13-74.65,74.27-111.97,111.4-3.4,3.38-4.52,3.43-7.15.35.06-1.94.17-3.87.18-5.81.04-11.03.06-22.06.09-33.09Z"/>
        <path class="cls-1" d="M218.5,226.16c-.03,11.03-.05,22.06-.09,33.09,0,1.94-.12,3.87-.18,5.81-10.13-9.15-19.39-19.18-28.92-28.94-17.48-17.91-34.96-35.82-52.42-53.76-2.07-2.13-4.06-4.35-5.98-6.62-1.08-1.27-1.86-2.84-1.18-4.54.73-1.83,2.49-1.93,4.16-1.97,7.28-.21,14.55-.42,21.83-.61,4.06-.1,7.44,1.08,10.43,4.17,16.98,17.54,34.11,34.93,51.19,52.37.36.36.77.67,1.16,1Z"/>
        <path class="cls-1" d="M31.94,115.43c0-17.95-.07-35.9.04-53.86.03-4.98,3.72-8.2,9.73-8.62,3.6-.25,7.25-.16,10.84.2,6.63.65,9.82,4.36,9.81,11.18-.01,26.67-.08,53.34-.11,80.02,0,7.68.06,15.35.06,23.03,0,7.27-4.3,11.66-11.55,11.79-2.86.05-5.74.12-8.58-.13-6.68-.6-10.43-4.61-10.25-11.34.42-15.86.27-31.72,0-47.59-.03-1.56,0-3.12,0-4.68-.12,0,.12,0,0,0Z"/>
        <path class="cls-1" d="M21.74,99c0,4.16-.13,42.38.05,46.53.1,2.28-.72,2.92-2.88,2.84-3.51-.13-7.02.09-10.53-.04-5.06-.19-8.24-3.13-8.35-8.15-.1-4.54.04-43.13,0-47.67-.06-6.03,2.74-8.76,8.79-8.81,3.51-.03,7.03.06,10.53-.05,1.87-.06,2.49.63,2.45,2.47-.1,4.29-.03,8.58-.03,12.87h-.03Z"/>
      </g>
      <g>
        <path class="cls-1" d="M519.22,148.49c0,20.74-.13,41.48.11,62.21.05,4.25-1.39,5.48-5.33,5.6-7.13.21-14.23.05-21.35-.16-3.8-.12-4.82-1.87-4.8-5.35.1-14.56-.04-29.13.07-43.69.02-3.04-.38-4.44-4.02-4.38-14.56.22-29.13.17-43.69,0-3.1-.04-4.02.82-3.98,3.93.19,14.56,0,29.13.28,43.68.08,4.11-1.26,5.66-5.25,5.91-6.97.43-13.91.17-20.87.16-4.92,0-6.45-1.8-6.39-6.75.25-22,.12-44.01.12-66.01,0-19.31.13-38.63-.09-57.94-.04-3.85,1.57-5.25,4.84-5.3,7.59-.12,15.19-.03,22.78-.02,3.62,0,4.87,1.88,4.84,5.42-.1,13.77.14,27.55-.06,41.31-.06,3.92.6,5.42,5.04,5.3,13.92-.36,27.86-.28,41.79-.09,3.58.05,4.82-.7,4.75-4.58-.26-13.93,0-27.86-.15-41.79-.04-3.64,1.06-5.14,4.88-5.02,7.22.23,14.46.24,21.68,0,3.76-.13,4.93,1.11,4.9,4.89-.16,20.89-.08,41.79-.08,62.69h-.02Z"/>
        <path class="cls-1" d="M769.64,216.75q-16.33-.11-21.57-15.53-3.66-10.75-15.02-10.74c-11.88,0-23.76.17-35.63-.08-3.91-.08-5.89.9-6.94,4.9-1.47,5.62-3.83,11-5.56,16.56-.77,2.47-2.21,3.77-4.6,4.08-7.24.94-14.54,1.16-21.79.49-6.19-.57-6.8-1.8-4.78-7.5,11.29-31.89,22.59-63.78,33.88-95.67,3.05-8.61,6.23-17.17,9.02-25.86,1.36-4.23,3.32-6.54,8.16-6.88,8.71-.62,17.38-.53,26.07-.04,4.21.24,6.65,2.43,8.09,6.43,6.16,17.19,12.56,34.29,18.79,51.45,8.64,23.79,17.22,47.61,25.77,71.43,1.97,5.48,1.47,6.14-4.38,6.8-1.57.18-3.16.14-4.74.16-1.58.02-3.17,0-4.75,0ZM734.08,163.33c-5.43-16.05-10.76-31.79-16.31-48.2-5.18,15.59-10.1,30.46-15.06,45.32-.73,2.18-.42,2.98,2.18,2.94,9.59-.15,19.19-.06,29.19-.06Z"/>
        <path class="cls-1" d="M1060.02,190.48c-7.28,0-14.57.16-21.85-.09-2.77-.1-3.94.9-4.66,3.35-1.61,5.44-3.58,10.77-5.04,16.24-1.11,4.16-3.53,6.06-7.73,6.03-6.81-.04-13.62.09-20.42-.06-5-.11-5.87-1.42-4.19-6.23,6.04-17.23,12.16-34.42,18.29-51.62,8.56-24.02,17.19-48.01,25.68-72.05,1.25-3.53,3.13-5.56,7.08-5.65,7.68-.17,15.38-1.27,23.01.53.3.07.65.14.94.06,8.47-2.35,10.33,3.44,12.52,9.62,13.82,38.97,27.83,77.88,41.77,116.81.37,1.04.71,2.09,1.07,3.14,1.37,3.92-.06,5.58-4.15,5.52-7.12-.12-14.25-.04-21.37-.11-3.89-.04-6.44-1.8-7.67-5.71-1.76-5.55-3.96-10.95-5.77-16.48-.8-2.45-1.97-3.45-4.71-3.37-7.59.22-15.2.08-22.8.07ZM1060.64,114.59c-5.23,15.82-10.08,30.79-15.17,45.67-.97,2.84-.21,3.14,2.34,3.11,8.54-.11,17.09-.11,25.63.01,2.82.04,3.16-.81,2.23-3.31-1.64-4.42-2.95-8.96-4.42-13.44-3.44-10.42-6.9-20.84-10.61-32.05Z"/>
        <path class="cls-1" d="M959.54,162.26c0,15.84-.15,31.67.09,47.51.07,4.51-.87,6.54-5.88,6.64-6.8.14-13.58.24-20.39-.06-4.28-.19-5.58-2.11-5.56-6.3.14-31.99,0-63.98.17-95.97.02-3.75-.97-4.74-4.67-4.64-9.65.26-19.32.13-28.98.03-5.6-.06-6.56-1-6.71-6.67-.15-5.85.09-11.72-.1-17.57-.1-3.27,1.49-4.61,4.4-4.94,1.25-.14,2.52-.2,3.79-.2,31.83-.01,63.66-.02,95.49,0,7.23,0,7.96.74,7.98,7.76.02,5.07.05,10.14-.01,15.2-.06,4.99-1.44,6.4-6.54,6.44-9.98.07-19.96.14-29.93-.04-2.77-.05-3.33.79-3.31,3.42.13,16.47.06,32.94.06,49.41h.09Z"/>
        <path class="cls-1" d="M637.08,130.48c0,14.73.26,29.47-.06,44.19-.42,19.43-12.98,36.58-30.93,41.5-17.52,4.79-34.88,4.36-50.36-6.56-11.02-7.78-16.39-18.96-16.52-32.49-.05-5.01,1.56-6.64,6.43-6.72,6.02-.1,12.04.01,18.06-.03,3.67-.02,5.71,1.65,6.73,5.25,3.55,12.46,17.29,17.63,28.43,10.79,4.85-2.98,6.21-7.7,6.19-13.04-.05-11.88-.21-23.76-.16-35.63.07-17.26.33-34.51.43-51.77.02-3.96,1.16-6.24,5.72-6.05,6.8.28,13.62.17,20.43.16,4.23,0,5.8,2.02,5.76,6.21-.15,14.73-.06,29.46-.06,44.19h-.08Z"/>
        <path class="cls-1" d="M805.73,148.47c0-20.26-.05-40.51.03-60.77.02-6.44.24-6.44,6.58-7,6.33-.56,12.65,0,18.97-.12,4.78-.09,6.32,2.1,6.3,6.63-.11,24.53-.05,49.06-.05,73.59,0,7.44.25,14.89-.09,22.31-.17,3.74,1.11,4.35,4.51,4.32,15.51-.18,31.02-.09,46.53-.04,5.37.02,6.23.9,6.33,6.38.09,4.9.04,9.81.04,14.72,0,7.92-.14,8.06-7.86,8.07-16.93.01-33.86.03-50.8,0-8.07-.01-16.14,0-24.21-.24-6.21-.18-6.44-.52-6.45-6.6-.03-20.42-.01-40.83-.01-61.25h.18Z"/>
      </g>
      <g>
        <path class="cls-1" d="M468.93,249.89v14.45h19.02v3.36h-19.02v15.6h-3.89v-36.77h25.21v3.36h-21.33Z"/>
        <path class="cls-1" d="M498.29,246.53h3.89v36.77h-3.89v-36.77Z"/>
        <path class="cls-1" d="M521.3,249.89h-12.92v-3.36h29.73v3.36h-12.92v33.41h-3.89v-33.41Z"/>
        <path class="cls-1" d="M575.03,246.53v36.77h-3.2l-23.64-29.84v29.84h-3.89v-36.77h3.2l23.69,29.84v-29.84h3.83Z"/>
        <path class="cls-1" d="M613.01,279.94v3.36h-26v-36.77h25.21v3.36h-21.33v13.08h19.01v3.31h-19.01v13.66h22.11Z"/>
        <path class="cls-1" d="M624.44,282.31c-2.5-.87-4.44-2.03-5.8-3.47l1.52-2.99c1.33,1.33,3.1,2.41,5.31,3.23,2.21.82,4.48,1.23,6.83,1.23,3.29,0,5.76-.6,7.41-1.81,1.65-1.21,2.47-2.78,2.47-4.7,0-1.47-.45-2.64-1.34-3.52-.89-.87-1.99-1.55-3.28-2.02-1.3-.47-3.1-.99-5.41-1.55-2.77-.7-4.97-1.37-6.62-2.02-1.65-.65-3.06-1.64-4.23-2.97-1.17-1.33-1.76-3.13-1.76-5.41,0-1.86.49-3.55,1.47-5.07.98-1.52,2.49-2.74,4.52-3.65,2.03-.91,4.55-1.37,7.56-1.37,2.1,0,4.16.29,6.17.87,2.01.58,3.76,1.37,5.23,2.39l-1.31,3.1c-1.54-1.01-3.19-1.78-4.94-2.28-1.75-.51-3.47-.76-5.15-.76-3.22,0-5.65.62-7.28,1.86-1.63,1.24-2.44,2.85-2.44,4.81,0,1.47.45,2.65,1.34,3.54s2.01,1.58,3.36,2.05c1.35.47,3.16.99,5.44,1.55,2.7.67,4.88,1.32,6.54,1.97,1.66.65,3.07,1.63,4.23,2.94s1.73,3.09,1.73,5.33c0,1.86-.5,3.55-1.5,5.07-1,1.52-2.53,2.73-4.6,3.62-2.07.89-4.61,1.34-7.62,1.34-2.73,0-5.35-.44-7.85-1.31Z"/>
        <path class="cls-1" d="M656.74,282.31c-2.5-.87-4.44-2.03-5.8-3.47l1.52-2.99c1.33,1.33,3.1,2.41,5.31,3.23s4.48,1.23,6.83,1.23c3.29,0,5.76-.6,7.41-1.81,1.65-1.21,2.47-2.78,2.47-4.7,0-1.47-.45-2.64-1.34-3.52-.89-.87-1.99-1.55-3.28-2.02-1.3-.47-3.1-.99-5.41-1.55-2.77-.7-4.97-1.37-6.62-2.02-1.65-.65-3.06-1.64-4.23-2.97-1.17-1.33-1.76-3.13-1.76-5.41,0-1.86.49-3.55,1.47-5.07.98-1.52,2.49-2.74,4.52-3.65,2.03-.91,4.55-1.37,7.56-1.37,2.1,0,4.16.29,6.17.87,2.01.58,3.76,1.37,5.23,2.39l-1.31,3.1c-1.54-1.01-3.19-1.78-4.94-2.28-1.75-.51-3.47-.76-5.15-.76-3.22,0-5.65.62-7.28,1.86-1.63,1.24-2.44,2.85-2.44,4.81,0,1.47.45,2.65,1.34,3.54s2.01,1.58,3.36,2.05c1.35.47,3.16.99,5.44,1.55,2.7.67,4.88,1.32,6.54,1.97,1.66.65,3.07,1.63,4.23,2.94s1.73,3.09,1.73,5.33c0,1.86-.5,3.55-1.5,5.07s-2.53,2.73-4.6,3.62c-2.07.89-4.61,1.34-7.62,1.34-2.73,0-5.35-.44-7.85-1.31Z"/>
        <path class="cls-1" d="M726.84,283.88l-5.1-5.25c-3.12,3.33-7.22,4.99-12.29,4.99-2.38,0-4.51-.39-6.38-1.18-1.87-.79-3.34-1.89-4.39-3.31s-1.58-3.04-1.58-4.86c0-2.21.7-4.18,2.1-5.94,1.4-1.75,3.78-3.59,7.14-5.51-1.75-1.82-2.96-3.37-3.62-4.65-.67-1.28-1-2.64-1-4.07,0-2.35.84-4.24,2.52-5.67s3.94-2.15,6.78-2.15c2.63,0,4.71.65,6.25,1.94,1.54,1.3,2.31,3.08,2.31,5.36,0,1.82-.61,3.46-1.84,4.91-1.23,1.45-3.34,3.06-6.36,4.81l10.09,10.4c1.12-2,1.94-4.36,2.47-7.09l3.05.95c-.67,3.29-1.75,6.11-3.26,8.46l5.25,5.41-2.15,2.47ZM719.54,276.37l-11.08-11.4c-2.91,1.65-4.91,3.13-6.01,4.47-1.1,1.33-1.66,2.82-1.66,4.46,0,2,.81,3.6,2.44,4.81s3.77,1.81,6.44,1.81c4.06,0,7.35-1.38,9.87-4.15ZM706.75,250.42c-1.03.91-1.55,2.12-1.55,3.62,0,1.09.28,2.12.84,3.1.56.98,1.66,2.31,3.31,3.99,2.66-1.54,4.5-2.85,5.52-3.94,1.01-1.08,1.52-2.28,1.52-3.57,0-1.4-.47-2.51-1.42-3.34-.95-.82-2.26-1.23-3.94-1.23-1.82,0-3.25.46-4.28,1.37Z"/>
        <path class="cls-1" d="M799.91,246.53l-12.4,36.77h-4.1l-10.77-31.36-10.82,31.36h-4.04l-12.4-36.77h3.99l10.61,31.62,10.98-31.62h3.62l10.82,31.78,10.77-31.78h3.73Z"/>
        <path class="cls-1" d="M833,279.94v3.36h-26v-36.77h25.21v3.36h-21.33v13.08h19.01v3.31h-19.01v13.66h22.11Z"/>
        <path class="cls-1" d="M842.14,246.53h3.89v33.41h20.59v3.36h-24.48v-36.77Z"/>
        <path class="cls-1" d="M873.08,246.53h3.89v33.41h20.59v3.36h-24.48v-36.77Z"/>
        <path class="cls-1" d="M932.78,267.47c1.31,1.56,1.97,3.56,1.97,6.01,0,3.15-1.16,5.58-3.49,7.28-2.33,1.7-5.77,2.55-10.32,2.55h-16.91v-36.77h15.86c4.1,0,7.28.82,9.53,2.47,2.26,1.65,3.39,3.98,3.39,6.99,0,2.03-.5,3.75-1.5,5.17-1,1.42-2.37,2.48-4.12,3.18,2.42.53,4.28,1.57,5.59,3.13ZM907.9,249.74v13.34h11.71c2.98,0,5.27-.57,6.88-1.71,1.61-1.14,2.42-2.79,2.42-4.96s-.81-3.83-2.42-4.96c-1.61-1.14-3.91-1.71-6.88-1.71h-11.71ZM928.34,278.42c1.68-1.12,2.52-2.87,2.52-5.25,0-4.59-3.33-6.88-9.98-6.88h-12.97v13.81h12.97c3.29,0,5.78-.56,7.46-1.68Z"/>
        <path class="cls-1" d="M969.62,279.94v3.36h-26v-36.77h25.21v3.36h-21.33v13.08h19.02v3.31h-19.02v13.66h22.11Z"/>
        <path class="cls-1" d="M978.76,246.53h3.89v36.77h-3.89v-36.77Z"/>
        <path class="cls-1" d="M1025.36,246.53v36.77h-3.2l-23.64-29.84v29.84h-3.89v-36.77h3.2l23.69,29.84v-29.84h3.83Z"/>
        <path class="cls-1" d="M1063.23,264.92h3.73v14.02c-1.72,1.51-3.75,2.66-6.09,3.47-2.35.81-4.82,1.21-7.41,1.21-3.68,0-6.99-.81-9.93-2.42-2.94-1.61-5.25-3.84-6.93-6.7-1.68-2.85-2.52-6.05-2.52-9.59s.84-6.73,2.52-9.59c1.68-2.85,3.99-5.09,6.93-6.7,2.94-1.61,6.27-2.42,9.98-2.42,2.8,0,5.38.45,7.72,1.34,2.35.89,4.33,2.21,5.94,3.97l-2.42,2.47c-2.91-2.87-6.6-4.31-11.08-4.31-2.98,0-5.66.66-8.06,1.97-2.4,1.31-4.28,3.13-5.65,5.46-1.37,2.33-2.05,4.93-2.05,7.8s.68,5.46,2.05,7.77c1.37,2.31,3.24,4.13,5.62,5.46s5.06,2,8.04,2c3.78,0,6.99-.95,9.61-2.84v-12.4Z"/>
      </g>
    </g>
  </g>
</svg>