<?xml version="1.0" encoding="UTF-8"?>
<svg id="Calque_2" data-name="Calque 2" xmlns="http://www.w3.org/2000/svg" viewBox="0 0 550.55 508.92">
  <defs>
    <style>
      .cls-1 {
        fill: #f6f4e6;
        stroke-width: 0px;
      }
    </style>
  </defs>
  <g id="Calque_1-2" data-name="Calque 1">
    <g>
      <g>
        <path class="cls-1" d="M304.48,265.7c3.39-5.21,8.19-9.14,12.49-13.5,33.19-33.64,66.81-66.87,99.55-100.94,17.83-18.55,23.09-41.39,15.6-66.14-7.28-24.04-23.85-39.38-48.45-44.42-25.53-5.23-51.03,4.22-66.94,27.5-7.72,11.3-10.61,23.78-11,37.08-.24,8.31.17,16.65-.21,24.95-.31,6.82-2.44,13.1-7.54,18.11-7.13,6.99-16.47,8.32-25.07,3.28-6.91-4.04-12.56-9.71-18.74-14.68-8.74-7.04-18.24-11.94-29.8-11.92-16.6.03-29.63,8.63-36.08,23.94-2.83,6.71-4.34,13.7-4.49,20.97-.1.94-.3,1.88-.3,2.83.02,16.19.07,32.38.12,48.56-2.62,14.12-7.62,23.23-21.83,27.73-.59.19-1.17.38-1.75.61-1.42.56-6.12,1.64-14.02-3.12-9.76-5.88-13.59-17.56-13.56-29.39.1-54,.37-108-.18-161.99-.17-16.95,5.36-28.31,17.73-30.59,1.03-.19,2.09-.26,3.14-.26,1.96,0,3.03,0,4.12.02,1.8.02,3.6.29,5.32.86,10.46,3.48,18.81,13.14,21.05,25.04-.24,16.45-.19,32.91.25,49.36,1.47.88,1.76-.75,2.36-1.29,9.85-8.9,21.25-13.57,34.63-13.98,16.04-.49,30.07,4.07,41.97,14.92.82.75,1.73,1.67,2.8,1.29,1.28-.46.73-1.89.79-2.9,2.56-44.47,32.44-80.45,73.34-92.54,41.66-12.32,78.32-2.05,108.4,29.29,15.52,16.17,23.91,36.13,26.12,58.51,2.68,27.08-3.68,51.87-19.18,74.23-3.24,4.68-6.98,9-11.01,13.02-43.85,43.62-87.7,87.25-131.55,130.87-4,3.97-5.31,4.03-8.4.41.07-2.27.2-4.55.21-6.82.05-12.96.07-25.91.11-38.87Z"/>
        <path class="cls-1" d="M304.48,265.7c-.03,12.96-.06,25.91-.11,38.87,0,2.27-.14,4.55-.21,6.82-11.91-10.75-22.78-22.53-33.97-33.99-20.54-21.04-41.07-42.09-61.58-63.15-2.44-2.5-4.77-5.11-7.03-7.77-1.27-1.5-2.19-3.33-1.38-5.34.86-2.15,2.92-2.26,4.89-2.32,8.55-.25,17.1-.49,25.64-.71,4.77-.12,8.74,1.27,12.25,4.89,19.94,20.61,40.07,41.04,60.14,61.53.42.43.91.79,1.36,1.18Z"/>
        <path class="cls-1" d="M85.3,135.61c0-21.09-.08-42.18.05-63.27.04-5.85,4.37-9.63,11.43-10.13,4.22-.3,8.52-.18,12.74.23,7.79.77,11.53,5.13,11.53,13.14-.02,31.34-.09,62.67-.13,94.01-.01,9.02.07,18.04.07,27.06,0,8.54-5.05,13.7-13.57,13.85-3.36.06-6.74.15-10.08-.15-7.85-.7-12.25-5.42-12.04-13.33.49-18.64.31-37.27,0-55.91-.03-1.83,0-3.66,0-5.49-.14,0,.14,0,0,0Z"/>
        <path class="cls-1" d="M73.33,116.31c0,4.89-.15,49.78.06,54.66.11,2.68-.85,3.43-3.39,3.34-4.12-.16-8.25.11-12.37-.04-5.95-.23-9.68-3.68-9.8-9.57-.11-5.34.05-50.67,0-56.01-.07-7.08,3.22-10.29,10.32-10.36,4.12-.04,8.25.08,12.37-.06,2.2-.07,2.93.74,2.88,2.91-.12,5.04-.04,10.08-.04,15.13h-.03Z"/>
      </g>
      <g>
        <path class="cls-1" d="M87.74,405.82c0,15.79-.1,31.58.08,47.37.04,3.23-1.06,4.17-4.06,4.26-5.43.16-10.84.04-16.26-.13-2.89-.09-3.67-1.42-3.66-4.07.07-11.09-.03-22.18.06-33.27.02-2.31-.29-3.38-3.06-3.34-11.09.17-22.18.13-33.27,0-2.36-.03-3.06.62-3.03,2.99.14,11.09,0,22.18.21,33.26.06,3.13-.96,4.31-4,4.5-5.3.33-10.6.13-15.9.12-3.75,0-4.91-1.37-4.86-5.14.19-16.75.09-33.51.09-50.27,0-14.71.1-29.41-.07-44.12-.03-2.93,1.2-4,3.68-4.04,5.78-.09,11.56-.03,17.35-.02,2.76,0,3.71,1.43,3.69,4.13-.07,10.49.11,20.98-.05,31.46-.04,2.99.45,4.12,3.84,4.04,10.6-.28,21.21-.21,31.82-.07,2.73.04,3.67-.54,3.61-3.49-.19-10.6,0-21.22-.11-31.82-.03-2.77.81-3.91,3.72-3.82,5.5.17,11.01.18,16.51,0,2.86-.1,3.76.85,3.73,3.72-.12,15.91-.06,31.82-.06,47.74h-.01Z"/>
        <path class="cls-1" d="M278.43,457.8q-12.43-.08-16.43-11.83-2.78-8.18-11.43-8.18c-9.04,0-18.09.13-27.13-.06-2.98-.06-4.49.68-5.29,3.73-1.12,4.28-2.92,8.37-4.23,12.61-.58,1.88-1.68,2.87-3.51,3.1-5.52.72-11.07.88-16.6.37-4.71-.43-5.18-1.37-3.64-5.71,8.6-24.28,17.2-48.56,25.8-72.85,2.32-6.55,4.74-13.07,6.87-19.69,1.03-3.22,2.53-4.98,6.21-5.24,6.63-.47,13.23-.4,19.85-.03,3.21.18,5.06,1.85,6.16,4.9,4.69,13.09,9.56,26.11,14.31,39.18,6.58,18.12,13.12,36.25,19.62,54.4,1.5,4.17,1.12,4.67-3.34,5.17-1.19.13-2.41.1-3.61.12-1.21.02-2.41,0-3.62,0ZM251.35,417.12c-4.14-12.22-8.19-24.21-12.42-36.7-3.94,11.87-7.69,23.2-11.47,34.51-.55,1.66-.32,2.27,1.66,2.24,7.31-.12,14.61-.05,22.23-.05Z"/>
        <path class="cls-1" d="M499.55,437.79c-5.55,0-11.1.13-16.64-.07-2.11-.07-3,.68-3.55,2.55-1.23,4.14-2.73,8.2-3.84,12.37-.85,3.17-2.68,4.61-5.88,4.59-5.18-.03-10.37.07-15.55-.05-3.81-.09-4.47-1.08-3.19-4.74,4.6-13.12,9.26-26.21,13.93-39.31,6.52-18.29,13.09-36.56,19.56-54.87.95-2.69,2.39-4.23,5.39-4.3,5.85-.13,11.71-.96,17.52.4.23.05.5.11.72.04,6.45-1.79,7.87,2.62,9.53,7.32,10.52,29.68,21.19,59.3,31.81,88.95.28.79.54,1.59.82,2.39,1.05,2.98-.05,4.25-3.16,4.2-5.42-.09-10.85-.03-16.27-.08-2.97-.03-4.9-1.37-5.84-4.35-1.34-4.22-3.02-8.34-4.39-12.55-.61-1.87-1.5-2.63-3.59-2.57-5.78.17-11.57.06-17.36.06ZM500.02,380c-3.98,12.05-7.68,23.44-11.55,34.78-.74,2.16-.16,2.39,1.78,2.37,6.51-.08,13.01-.09,19.52.01,2.15.03,2.41-.61,1.7-2.52-1.25-3.36-2.24-6.82-3.37-10.23-2.62-7.94-5.25-15.87-8.08-24.41Z"/>
        <path class="cls-1" d="M423.03,416.3c0,12.06-.11,24.12.07,36.18.05,3.43-.66,4.98-4.48,5.06-5.18.11-10.34.18-15.52-.05-3.26-.14-4.25-1.61-4.23-4.79.1-24.36,0-48.72.13-73.08.01-2.86-.74-3.61-3.55-3.53-7.35.2-14.71.1-22.07.02-4.27-.04-5-.76-5.11-5.08-.12-4.46.07-8.92-.08-13.38-.08-2.49,1.14-3.51,3.35-3.76.95-.11,1.92-.16,2.88-.16,24.24,0,48.48-.02,72.72,0,5.51,0,6.06.57,6.08,5.91.01,3.86.03,7.72,0,11.58-.04,3.8-1.1,4.88-4.98,4.9-7.6.05-15.2.1-22.79-.03-2.11-.04-2.54.6-2.52,2.6.1,12.54.05,25.08.05,37.62h.07Z"/>
        <path class="cls-1" d="M177.49,392.1c0,11.22.2,22.44-.05,33.65-.32,14.8-9.88,27.86-23.56,31.6-13.34,3.65-26.56,3.32-38.35-5-8.39-5.92-12.48-14.44-12.58-24.74-.04-3.81,1.19-5.05,4.89-5.12,4.58-.08,9.17,0,13.75-.02,2.79-.02,4.35,1.26,5.13,4,2.71,9.49,13.17,13.42,21.65,8.21,3.7-2.27,4.73-5.87,4.71-9.93-.04-9.04-.16-18.09-.12-27.13.06-13.14.25-26.28.32-39.42.02-3.01.89-4.75,4.36-4.61,5.18.21,10.37.13,15.56.12,3.22,0,4.42,1.54,4.38,4.73-.11,11.22-.04,22.43-.04,33.65h-.06Z"/>
        <path class="cls-1" d="M305.91,405.8c0-15.42-.04-30.85.02-46.27.02-4.9.19-4.9,5.01-5.33,4.82-.43,9.63,0,14.44-.09,3.64-.07,4.81,1.6,4.79,5.05-.08,18.68-.04,37.36-.04,56.04,0,5.66.19,11.34-.07,16.99-.13,2.85.85,3.32,3.43,3.29,11.81-.13,23.62-.07,35.43-.03,4.09.01,4.75.69,4.82,4.86.07,3.73.03,7.47.03,11.21,0,6.03-.1,6.14-5.99,6.14-12.89.01-25.79.02-38.68,0-6.14-.01-12.29,0-18.43-.18-4.73-.14-4.9-.39-4.91-5.03-.02-15.55,0-31.09,0-46.64h.14Z"/>
      </g>
      <g>
        <path class="cls-1" d="M49.44,483.04v11h14.48v2.56h-14.48v11.88h-2.96v-28h19.2v2.56h-16.24Z"/>
        <path class="cls-1" d="M71.8,480.48h2.96v28h-2.96v-28Z"/>
        <path class="cls-1" d="M89.32,483.04h-9.84v-2.56h22.64v2.56h-9.84v25.44h-2.96v-25.44Z"/>
        <path class="cls-1" d="M130.24,480.48v28h-2.44l-18-22.72v22.72h-2.96v-28h2.44l18.04,22.72v-22.72h2.92Z"/>
        <path class="cls-1" d="M159.16,505.92v2.56h-19.8v-28h19.2v2.56h-16.24v9.96h14.48v2.52h-14.48v10.4h16.84Z"/>
        <path class="cls-1" d="M167.86,507.72c-1.91-.67-3.38-1.55-4.42-2.64l1.16-2.28c1.01,1.01,2.36,1.83,4.04,2.46s3.41.94,5.2.94c2.51,0,4.39-.46,5.64-1.38s1.88-2.11,1.88-3.58c0-1.12-.34-2.01-1.02-2.68-.68-.67-1.51-1.18-2.5-1.54-.99-.36-2.36-.75-4.12-1.18-2.11-.53-3.79-1.05-5.04-1.54-1.25-.49-2.33-1.25-3.22-2.26-.89-1.01-1.34-2.39-1.34-4.12,0-1.41.37-2.7,1.12-3.86.75-1.16,1.89-2.09,3.44-2.78,1.55-.69,3.47-1.04,5.76-1.04,1.6,0,3.17.22,4.7.66,1.53.44,2.86,1.05,3.98,1.82l-1,2.36c-1.17-.77-2.43-1.35-3.76-1.74-1.33-.39-2.64-.58-3.92-.58-2.45,0-4.3.47-5.54,1.42-1.24.95-1.86,2.17-1.86,3.66,0,1.12.34,2.02,1.02,2.7s1.53,1.2,2.56,1.56c1.03.36,2.41.75,4.14,1.18,2.05.51,3.71,1.01,4.98,1.5,1.27.49,2.34,1.24,3.22,2.24s1.32,2.35,1.32,4.06c0,1.41-.38,2.7-1.14,3.86s-1.93,2.08-3.5,2.76c-1.57.68-3.51,1.02-5.8,1.02-2.08,0-4.07-.33-5.98-1Z"/>
        <path class="cls-1" d="M192.46,507.72c-1.91-.67-3.38-1.55-4.42-2.64l1.16-2.28c1.01,1.01,2.36,1.83,4.04,2.46s3.41.94,5.2.94c2.51,0,4.39-.46,5.64-1.38s1.88-2.11,1.88-3.58c0-1.12-.34-2.01-1.02-2.68-.68-.67-1.51-1.18-2.5-1.54-.99-.36-2.36-.75-4.12-1.18-2.11-.53-3.79-1.05-5.04-1.54-1.25-.49-2.33-1.25-3.22-2.26-.89-1.01-1.34-2.39-1.34-4.12,0-1.41.37-2.7,1.12-3.86.75-1.16,1.89-2.09,3.44-2.78,1.55-.69,3.47-1.04,5.76-1.04,1.6,0,3.17.22,4.7.66,1.53.44,2.86,1.05,3.98,1.82l-1,2.36c-1.17-.77-2.43-1.35-3.76-1.74-1.33-.39-2.64-.58-3.92-.58-2.45,0-4.3.47-5.54,1.42-1.24.95-1.86,2.17-1.86,3.66,0,1.12.34,2.02,1.02,2.7s1.53,1.2,2.56,1.56c1.03.36,2.41.75,4.14,1.18,2.05.51,3.71,1.01,4.98,1.5,1.27.49,2.34,1.24,3.22,2.24s1.32,2.35,1.32,4.06c0,1.41-.38,2.7-1.14,3.86s-1.93,2.08-3.5,2.76c-1.57.68-3.51,1.02-5.8,1.02-2.08,0-4.07-.33-5.98-1Z"/>
        <path class="cls-1" d="M245.84,508.92l-3.88-4c-2.37,2.53-5.49,3.8-9.36,3.8-1.81,0-3.43-.3-4.86-.9-1.43-.6-2.54-1.44-3.34-2.52s-1.2-2.31-1.2-3.7c0-1.68.53-3.19,1.6-4.52,1.07-1.33,2.88-2.73,5.44-4.2-1.33-1.39-2.25-2.57-2.76-3.54-.51-.97-.76-2.01-.76-3.1,0-1.79.64-3.23,1.92-4.32s3-1.64,5.16-1.64c2,0,3.59.49,4.76,1.48,1.17.99,1.76,2.35,1.76,4.08,0,1.39-.47,2.63-1.4,3.74-.93,1.11-2.55,2.33-4.84,3.66l7.68,7.92c.85-1.52,1.48-3.32,1.88-5.4l2.32.72c-.51,2.51-1.33,4.65-2.48,6.44l4,4.12-1.64,1.88ZM240.28,503.2l-8.44-8.68c-2.21,1.25-3.74,2.39-4.58,3.4s-1.26,2.15-1.26,3.4c0,1.52.62,2.74,1.86,3.66s2.87,1.38,4.9,1.38c3.09,0,5.6-1.05,7.52-3.16ZM230.54,483.44c-.79.69-1.18,1.61-1.18,2.76,0,.83.21,1.61.64,2.36.43.75,1.27,1.76,2.52,3.04,2.03-1.17,3.43-2.17,4.2-3,.77-.83,1.16-1.73,1.16-2.72,0-1.07-.36-1.91-1.08-2.54-.72-.63-1.72-.94-3-.94-1.39,0-2.47.35-3.26,1.04Z"/>
        <path class="cls-1" d="M301.48,480.48l-9.44,28h-3.12l-8.2-23.88-8.24,23.88h-3.08l-9.44-28h3.04l8.08,24.08,8.36-24.08h2.76l8.24,24.2,8.2-24.2h2.84Z"/>
        <path class="cls-1" d="M326.68,505.92v2.56h-19.8v-28h19.2v2.56h-16.24v9.96h14.48v2.52h-14.48v10.4h16.84Z"/>
        <path class="cls-1" d="M333.64,480.48h2.96v25.44h15.68v2.56h-18.64v-28Z"/>
        <path class="cls-1" d="M357.2,480.48h2.96v25.44h15.68v2.56h-18.64v-28Z"/>
        <path class="cls-1" d="M402.66,496.42c1,1.19,1.5,2.71,1.5,4.58,0,2.4-.89,4.25-2.66,5.54-1.77,1.29-4.39,1.94-7.86,1.94h-12.88v-28h12.08c3.12,0,5.54.63,7.26,1.88,1.72,1.25,2.58,3.03,2.58,5.32,0,1.55-.38,2.86-1.14,3.94-.76,1.08-1.81,1.89-3.14,2.42,1.84.4,3.26,1.19,4.26,2.38ZM383.72,482.92v10.16h8.92c2.27,0,4.01-.43,5.24-1.3,1.23-.87,1.84-2.13,1.84-3.78s-.61-2.91-1.84-3.78c-1.23-.87-2.97-1.3-5.24-1.3h-8.92ZM399.28,504.76c1.28-.85,1.92-2.19,1.92-4,0-3.49-2.53-5.24-7.6-5.24h-9.88v10.52h9.88c2.51,0,4.4-.43,5.68-1.28Z"/>
        <path class="cls-1" d="M430.71,505.92v2.56h-19.8v-28h19.2v2.56h-16.24v9.96h14.48v2.52h-14.48v10.4h16.84Z"/>
        <path class="cls-1" d="M437.67,480.48h2.96v28h-2.96v-28Z"/>
        <path class="cls-1" d="M473.15,480.48v28h-2.44l-18-22.72v22.72h-2.96v-28h2.44l18.04,22.72v-22.72h2.92Z"/>
        <path class="cls-1" d="M501.99,494.48h2.84v10.68c-1.31,1.15-2.85,2.03-4.64,2.64-1.79.61-3.67.92-5.64.92-2.8,0-5.32-.61-7.56-1.84s-4-2.93-5.28-5.1c-1.28-2.17-1.92-4.61-1.92-7.3s.64-5.13,1.92-7.3c1.28-2.17,3.04-3.87,5.28-5.1,2.24-1.23,4.77-1.84,7.6-1.84,2.13,0,4.09.34,5.88,1.02,1.79.68,3.29,1.69,4.52,3.02l-1.84,1.88c-2.21-2.19-5.03-3.28-8.44-3.28-2.27,0-4.31.5-6.14,1.5-1.83,1-3.26,2.39-4.3,4.16-1.04,1.77-1.56,3.75-1.56,5.94s.52,4.16,1.56,5.92,2.47,3.15,4.28,4.16,3.85,1.52,6.12,1.52c2.88,0,5.32-.72,7.32-2.16v-9.44Z"/>
      </g>
    </g>
  </g>
</svg>